<svg width="115" height="40" viewBox="0 0 115 40" fill="none" xmlns="http://www.w3.org/2000/svg">
<g clip-path="url(#clip0_58_11)">
<path d="M60.5391 40C49.4076 40.0564 40.2736 31.0605 40.2784 19.9648C40.2832 8.87846 49.3886 0.220794 60.1721 0.00470471C71.6039 -0.225477 80.9238 8.73283 80.9667 19.9272C81.0096 31.1122 71.785 40.1081 60.5391 40ZM75.0315 20.0258C75.0649 12.0728 68.3097 5.59954 60.5391 5.69819C52.5826 5.79684 46.042 12.4674 46.1945 20.2607C46.3423 27.9601 53.1452 34.4756 60.8633 34.3253C68.9247 34.1703 75.0887 27.3353 75.0315 20.0258Z" fill="black"/>
<path d="M100.417 40.0094C97.3565 39.9906 94.4151 39.4316 91.6501 38.1162C89.8719 37.2707 88.2892 36.1526 86.9019 34.7669C86.6064 34.4709 86.6016 34.2501 86.8781 33.9401C87.946 32.7516 88.99 31.5443 90.0483 30.3464C90.3725 29.9753 90.4488 29.9753 90.8158 30.29C92.9468 32.1362 95.3638 33.4609 98.1478 34.034C101.123 34.6494 104.002 34.3629 106.629 32.7375C108.25 31.7322 109.084 30.2525 109.084 28.3452C109.084 27.0581 108.498 26.0434 107.511 25.2495C106.286 24.2677 104.851 23.6711 103.377 23.1591C100.546 22.182 97.6854 21.2707 94.887 20.2137C92.6846 19.3775 90.6871 18.1609 89.1997 16.2865C88.1366 14.9477 87.5455 13.421 87.393 11.7252C87.1641 9.16028 87.7267 6.81148 89.3571 4.76333C90.6108 3.18964 92.2174 2.07161 94.0719 1.29181C97.4995 -0.150351 101.042 -0.305372 104.65 0.441546C107.501 1.03344 110.071 2.24072 112.383 3.97414C112.821 4.30297 112.845 4.35934 112.559 4.79621C111.734 6.06456 110.895 7.32352 110.075 8.59187C109.856 8.9301 109.67 8.9254 109.346 8.70461C106.867 6.98059 104.155 5.83438 101.084 5.70755C99.1919 5.62769 97.3517 5.87666 95.6307 6.75981C92.8085 8.21136 92.4319 11.744 94.8918 13.7357C95.9311 14.5766 97.1086 15.1544 98.3624 15.5913C100.961 16.4932 103.578 17.3341 106.166 18.2548C108.183 18.9735 110.095 19.8943 111.749 21.2754C113.889 23.0605 114.962 25.3341 114.995 28.0822C115.052 32.465 112.869 35.5795 109.184 37.778C106.5 39.3893 103.54 40.0282 100.417 40.0094Z" fill="black"/>
<path d="M19.398 40.0096C14.7213 39.9297 9.88735 38.0366 5.91625 34.1423C2.87952 31.1593 1.0203 27.5563 0.305214 23.3895C-0.357432 19.5187 0.0525506 15.7371 1.62097 12.1388C3.61367 7.56803 6.90307 4.14818 11.4796 1.98259C15.7987 -0.060864 20.3181 -0.460159 24.9852 0.493452C28.7847 1.27325 32.0455 3.04424 34.8295 5.69369C35.0774 5.92857 35.3015 6.18693 35.5398 6.43121C35.7115 6.60502 35.7067 6.75534 35.5303 6.91976C34.2765 8.08006 33.018 9.24037 31.7642 10.4054C31.5115 10.6403 31.3304 10.4946 31.1254 10.3208C30.2816 9.60208 29.4902 8.80819 28.5701 8.2022C24.6086 5.59504 20.3085 4.94677 15.794 6.47819C11.9611 7.77942 9.15797 10.3255 7.37026 13.9192C5.86858 16.935 5.53964 20.0965 6.3453 23.3519C6.884 25.5316 7.92802 27.4811 9.40586 29.1957C11.1745 31.2533 13.3579 32.7236 15.9417 33.6021C17.8868 34.2597 19.889 34.457 21.9342 34.241C25.5716 33.8511 28.6655 32.3807 31.1635 29.7313C31.3733 29.5105 31.5592 29.4776 31.7976 29.6796C33.0752 30.7553 34.3528 31.8311 35.6352 32.8974C35.926 33.137 35.802 33.3249 35.6018 33.541C33.7474 35.5234 31.5783 37.0783 29.0898 38.1963C26.3057 39.4506 23.3691 40.0096 19.398 40.0096Z" fill="black"/>
</g>
<defs>
<clipPath id="clip0_58_11">
<rect width="115" height="40" fill="white"/>
</clipPath>
</defs>
</svg>
